<svg width="46" height="42" viewBox="0 0 46 42" xmlns="http://www.w3.org/2000/svg" fill="inherit" style="">
<path d="M41.6667 20.8333H37.5V8.82917L20.9833 23.6208L4.16667 8.78333V33.3333H25V37.5H2.08333C1.5308 37.5 1.00089 37.2805 0.610194 36.8898C0.219493 36.4991 0 35.9692 0 35.4167V2.08333C0 1.5308 0.219493 1.00089 0.610194 0.610194C1.00089 0.219493 1.5308 0 2.08333 0H39.5833C40.1359 0 40.6658 0.219493 41.0565 0.610194C41.4472 1.00089 41.6667 1.5308 41.6667 2.08333V20.8333ZM5.23125 4.16667L20.9604 18.0458L36.4625 4.16667H5.23125ZM39.5833 31.25H45.8333V35.4167H39.5833V41.6667H35.4167V35.4167H29.1667V31.25H35.4167V25H39.5833V31.25Z" fill="inherit"/>
</svg>